<?xml version="1.0" encoding="utf-8"?>
<!-- Generator: Adobe Illustrator 19.1.1, SVG Export Plug-In . SVG Version: 6.00 Build 0)  -->
<svg version="1.1" id="_x31_0" xmlns="http://www.w3.org/2000/svg" xmlns:xlink="http://www.w3.org/1999/xlink" x="0px" y="0px"
	 viewBox="0 0 512 512" style="enable-background:new 0 0 512 512;" xml:space="preserve">
<style type="text/css">
	.st0{fill:#374149;}
</style>
<g>
	<path class="st0" d="M339.73,139.981c-28.867,1.613-55.023,20.218-69.106,44.976c-13.27,23.328-16.035,55.618,1.293,77.801
		c17.102,21.887,51.305,17.59,72.618,4.894c24.386-14.523,40.813-41.874,42.718-70.129c0.23-3.438,0.246-6.89,0.047-10.328
		c-0.758-12.953-4.641-27.098-13.844-36.691C364.875,141.554,351.633,139.313,339.73,139.981z M334.098,197.176
		c-1.75,4.535-0.851,9.086-1.543,13.77c-1.062,7.164-4.738,13.797-10.332,18.41c-5.203,4.297-11.262,5.828-17.726,7.102
		c-4.613,0.91-9.25,1.75-13.906,2.402c-4.668,0.622-6.418-6.141-2.058-7.894c6.207-2.422,12.606-4.246,18.867-6.492
		c8.043-2.883,13.258-10.317,13.086-18.859l0.012-0.024c-0.274-12.148,6.699-23.523,18.054-28.187
		c4.203-1.722,8.93-2.274,13.375-3.031c3.66-0.618,7.336-1.203,11.024-1.656c3.656-0.434,5.054,4.847,1.629,6.25
		c-6.062,2.477-12.278,4.582-18.485,6.672C340.676,188.035,336.305,191.438,334.098,197.176z"/>
	<path class="st0" d="M214.55,284.883c0.778-0.738,1.672-1.348,2.371-2.165c6.387-7.468,7.122-18.09,5.668-27.426
		c-3.531-22.641-20.254-41.82-40.882-50.992c-19.438-8.637-45.118-8.297-61.258,7.11c-15.93,15.199-9.867,41.84,1.812,57.652
		c13.363,18.102,36.219,28.918,58.653,28.215c2.73-0.09,5.457-0.344,8.152-0.774c8.422-1.336,17.191-4.578,23.89-10.164
		C213.504,285.883,214.023,285.383,214.55,284.883z M176.715,245.504c3.316,0.621,6.457,1.918,9.199,3.832
		c0.206,0.148,0.394,0.32,0.598,0.473c1.535,1.148,2.934,2.492,4.148,4.015c0.317,0.394,0.602,0.809,0.89,1.226
		c0.5,0.723,1.004,1.442,1.426,2.234c1.691,3.184,2.492,6.867,3.438,10.313c0.777,2.844,1.523,5.695,2.168,8.566
		c0.633,2.852-3.426,4.367-4.801,1.778c-2.43-4.59-4.574-9.325-6.703-14.062c-2.321-4.082-5.344-7.266-10.043-8.559
		c-3.718-1.027-7.234,0.043-10.981-0.137c-5.734-0.281-11.254-2.66-15.332-6.71c-3.793-3.77-5.476-8.426-6.984-13.43
		c-1.078-3.57-2.106-7.153-2.985-10.782c-0.851-3.629,4.34-5.539,6.066-2.238c2.395,4.707,4.336,9.61,6.598,14.375
		c2.59,5.461,7.899,8.668,13.782,8.766c0.078,0.004,0.149,0.035,0.222,0.035c0.082,0,0.172-0.016,0.254-0.016
		c0.554-0.007,1.078,0.13,1.641,0.063l0.015,0.004c2.039-0.25,4.062-0.184,6.047,0.074
		C175.828,245.383,176.278,245.422,176.715,245.504z"/>
	<path class="st0" d="M304.676,321.562c-18.328-13.762-43.684-15.836-64.859-8.019c-19.958,7.367-38.118,25.531-38.938,47.824
		c-0.809,22.004,22.117,36.859,41.519,40.05c22.199,3.645,46.121-4.546,61.703-20.71c1.894-1.965,3.668-4.047,5.301-6.23
		c6.156-8.242,11.023-18.801,10.344-29.313C319.114,335.355,312.23,327.23,304.676,321.562z M227.18,350.578
		c5,1.703,9.808,3.863,14.754,5.695c0.785,0.293,1.586,0.328,2.383,0.492c0.21,0.043,0.422,0.094,0.633,0.129
		c3.094,0.512,6.136,0.09,8.91-1.187c0.106-0.051,0.215-0.094,0.321-0.145c0.969-0.473,1.87-1.027,2.738-1.707
		c0.028-0.023,0.051-0.05,0.078-0.074c0.871-0.699,1.77-1.356,2.5-2.258l0.016-0.004c6.038-7.511,16.074-10.843,25.336-7.874
		c3.434,1.106,6.578,3.187,9.656,4.992c2.539,1.496,5.066,3.019,7.531,4.625c2.438,1.606,0.59,5.52-2.199,4.622
		c-4.946-1.59-9.786-3.489-14.614-5.399c-4.511-1.308-8.898-1.48-13.168,0.875c-3.374,1.859-5.152,5.074-7.965,7.562
		c-4.305,3.801-9.914,5.942-15.664,5.887c-5.347-0.055-9.805-2.219-14.375-4.754c-3.258-1.801-6.496-3.656-9.656-5.637
		C221.254,354.41,223.641,349.418,227.18,350.578z"/>
	<path class="st0" d="M387.301,187.195C388.477,207.152,386.282,169.742,387.301,187.195L387.301,187.195z"/>
	<path class="st0" d="M384.778,159.309c1.898,1.894,3.996,3.996,5.058,5.054c-0.719-0.718-2.019-2.023-4.11-4.11
		C385.363,159.894,385.094,159.625,384.778,159.309z"/>
	<path class="st0" d="M381.035,155.566c0.207,0.207,0.734,0.734,1.438,1.438C381.699,156.23,381.238,155.77,381.035,155.566z"/>
	<path class="st0" d="M256,0C114.614,0,0,114.61,0,255.996C0,397.386,114.614,512,256,512s256-114.614,256-256.004
		C512,114.61,397.386,0,256,0z M256,447.996c-105.871,0-192.004-86.129-192.004-192c0-105.863,86.133-192,192.004-192
		c105.867,0,192,86.137,192,192C448,361.867,361.867,447.996,256,447.996z"/>
</g>
</svg>
